<svg width="32" height="32" viewBox="0 0 32 32" fill="none" xmlns="http://www.w3.org/2000/svg">
<rect width="32" height="32" rx="16" fill="#F3F3F3"/>
<path d="M22.6654 23.5V21.8333C22.6654 20.9493 22.3142 20.1014 21.6891 19.4763C21.0639 18.8512 20.2161 18.5 19.332 18.5H12.6654C11.7813 18.5 10.9335 18.8512 10.3083 19.4763C9.68322 20.1014 9.33203 20.9493 9.33203 21.8333V23.5M19.332 11.8333C19.332 13.6743 17.8396 15.1667 15.9987 15.1667C14.1577 15.1667 12.6654 13.6743 12.6654 11.8333C12.6654 9.99238 14.1577 8.5 15.9987 8.5C17.8396 8.5 19.332 9.99238 19.332 11.8333Z" stroke="#8D8D8D" stroke-width="1.66667" stroke-linecap="round" stroke-linejoin="round"/>
</svg>
