<svg width="42" height="38" viewBox="0 0 42 38" fill="none" xmlns="http://www.w3.org/2000/svg">
<path d="M40.3146 35.943L21.0023 0.168945C17.1399 7.16476 17.1399 6.13129 21.0023 13.1072C23.6288 18.1355 28.3989 26.8206 31.3537 31.4911C34.3085 36.1616 36.1818 37.1355 41.2802 37.8311L40.276 35.9629" fill="#0885E6"/>
<path d="M13.1598 14.6777L10.7071 19.2489L0.722656 37.8315C8.87244 37.8315 11.7114 29.1861 15.5352 23.2238L17.9299 18.752C16.2068 17.572 14.585 16.2421 13.0825 14.7771" fill="#0885E6"/>
<path d="M13.1602 14.6776C14.6941 16.1403 16.3483 17.4636 18.1041 18.6326C20.0353 15.6713 17.1192 12.2927 15.9218 9.70898L13.1602 14.6776Z" fill="white"/>
</svg>
